<?xml version="1.0" encoding="utf-8" ?>
<svg xmlns="http://www.w3.org/2000/svg" xmlns:cc="http://creativecommons.org/ns" xmlns:dc="http://purl.org/dc/elements/1.1/" xmlns:ev="http://www.w3.org/2001/xml-events" xmlns:inkscape="http://www.inkscape.org/namespaces/inkscape" xmlns:rdf="http://www.w3.org/1999/02/22-rdf-syntax-ns" xmlns:sodipodi="http://sodipodi.sourceforge.net/DTD/sodipodi-0.dtd" xmlns:xlink="http://www.w3.org/1999/xlink" baseProfile="tiny" height="27.94001509cm" version="1.2" viewBox="0 0 816.00044064 1056.0005702400001" width="21.59001166cm">
  <metadata>
    <rdf:RDF>
      <cc:Work>
        <dc:format>image/svg+xml</dc:format>
        <dc:source>vpype read _vpypelayout_letter_p01.svg scale 0.9 0.9 crop 0.5in 0.5in 10.0in 7.5in linesimplify reloop linemerge --tolerance 0.004in linesort --no-flip write out1.svg
</dc:source>
        <dc:date>2025-12-15T05:31:33.856233</dc:date>
      </cc:Work>
    </rdf:RDF>
  </metadata>
  <defs/>
  <g fill="none" id="layer1" inkscape:groupmode="layer" inkscape:label="1" stroke="#000000" stroke-width="1.0" style="display:inline">
    <polygon points="73.2,433.2002 73.2,87.6 289.2002,87.6 289.2002,433.2002"/>
    <polygon points="189.6391,398.5123 189.9708,359.0504 188.9759,357.7239 166.7579,346.7807 188.6443,335.8376 213.1836,347.1123 212.5204,386.5743 190.3023,398.8439"/>
    <polygon points="189.9045,399.1844 166.7144,387.002 166.4419,346.8166 190.112,358.2505 189.9045,399.1844 166.7144,387.002 166.4419,346.8166 190.112,358.2505"/>
    <polygon points="213.2901,346.8166 190.112,358.2505 213.2901,346.8166 213.2901,346.8166 212.6225,387.002 189.9045,399.1844 212.6225,387.002 213.2901,346.8166 189.6318,335.927 166.4419,346.8166 189.6318,335.927"/>
    <polyline points="198.539,298.8348 198.4952,303.6602 222.5059,293.1017 222.6037,288.3751"/>
    <polyline points="222.1561,284.406 222.6037,288.3751 222.1554,284.406 221.4739,284.4375 197.5978,294.0543 189.9708,290.7382 187.6495,286.4273 180.6856,286.4273 173.0585,285.1008 164.7682,281.7847 158.7992,277.1421 159.4624,276.1473 165.0998,279.1318 170.7372,275.8156 170.074,274.1575 171.7321,272.4995 178.6959,268.5202 179.6908,268.8518 180.0224,270.1782 178.6959,271.5047 173.0585,273.4943 176.3747,274.8208 180.4111,270.212 179.7259,268.2658 167.838,275.3965 167.5879,278.0252 170.966,276.2059"/>
    <line x1="174.0534" x2="172.0637" y1="278.8002" y2="281.453"/>
    <line x1="167.0895" x2="165.0998" y1="283.4428" y2="288.4169"/>
    <polyline points="178.0327,284.4375 172.3953,283.4428 167.0895,279.4634 173.7217,275.1524 175.3798,275.8156 176.7062,275.1524 176.2446,276.2222 174.8064,274.9829 170.966,276.2059 169.9367,274.6693 174.8064,274.9829 166.7337,279.29 171.5918,282.0924 178.3603,273.1703 178.359,271.752 167.838,275.3965 163.9594,272.3768 161.8679,273.8057 165.3402,273.4519 158.4466,276.6705 165.6592,273.7003 161.1205,276.1473 160.1256,275.4841 163.1102,274.1575 158.7992,271.1731 168.7475,269.1834 170.074,269.8466 167.5813,269.959 169.7388,270.541 170.3897,269.4792"/>
    <polyline points="167.4953,264.7315 170.2351,263.2529 162.2897,267.0007 153.058,264.2612 162.3246,266.3159"/>
    <line x1="162.4831" x2="166.2382" y1="259.7822" y2="258.3907"/>
    <polyline points="174.0534,261.8879 170.4056,263.8776 170.7372,267.8569 181.8834,251.9548 178.2887,251.8932 168.0227,258.3901 160.9307,260.8102 139.9967,253.139 138.3927,252.3497 138.8752,251.1318 160.5637,259.5397 137.7392,250.3949 146.4579,254.7035 154.9203,257.1495 157.75,252.9377 162.637,249.1109"/>
    <polyline points="153.2791,238.5215 150.3241,238.8833 151.4984,238.1521 150.8452,234.6701 142.2461,231.499 149.5141,233.3693 163.1102,234.3641 148.9072,233.9685 149.6934,239.274 162.737,240.7221 165.0998,239.0067 163.1102,240.0014 151.5037,239.3382 150.1773,238.675 148.1875,234.6957 142.2186,232.706 141.8869,231.3795 140.1967,233.6303 140.729,234.0281"/>
    <polyline points="139.4847,229.4734 144.2355,231.9722 150.2678,233.4594 159.4528,233.8723 164.9738,232.7043 163.514,234.9875"/>
    <polyline points="175.4319,233.028 165.0998,239.0067 166.8677,238.0898 152.1669,238.3435 151.1721,237.6802 150.8405,235.3589 150.8452,234.6701 163.514,234.9875 163.1221,234.1091 165.2202,238.6555 173.0654,234.8094"/>
    <polyline points="179.4188,228.3821 178.2426,227.9938 177.4242,228.8683 183.6038,220.7799 184.4172,217.1938 183.7192,213.1365 177.0989,208.5988 174.316,188.1353 177.1506,208.6243 170.5737,206.0848 156.646,217.5231 150.6044,215.9062 145.8951,213.7587 149.4086,207.2368 155.9221,200.7664 157.4253,203.416 157.5815,208.9947 155.5405,213.3362 151.6029,216.1731 152.3635,212.716 150.5291,208.0022 151.8088,205.8925 154.719,206.2533 157.4253,203.416 155.9221,200.7664 151.836,200.5353 146.2686,203.1882 136.5805,214.477 133.8981,221.4206 135.1329,224.9596 142.2461,231.499 139.8117,235.5569 138.7754,234.9892 135.0491,230.409 135.9179,230.3848 139.2341,234.6957 140.2288,234.3641 135.1095,227.4125 134.3288,222.6552 135.4317,227.5859 134.3361,238.3169 137.7392,250.3949 138.8752,251.1318 140.459,264.6482 158.0517,271.5876 171.752,268.7925 170.2351,263.2529 166.7032,257.0371 175.7957,245.9347 177.5393,244.9282 179.4185,240.2571 175.2343,231.2071 177.4242,228.8683 182.6676,228.6667 184.4524,229.1183 184.0017,230.0531 188.6443,234.0325 186.332,232.0647 181.2739,224.1362 182.9753,223.65 190.5484,234.4433 192.6236,232.706 189.9708,234.0325 181.6804,223.0893 175.0481,231.3795 179.0275,240.0014 177.3821,245.3182 169.1077,250.8757 165.3963,255.2629 166.2382,258.3907 165.4937,256.3818 165.7707,257.6111 166.7032,257.0371 160.8602,260.3834 154.8169,258.2667 155.0088,257.4795"/>
    <polyline points="144.8479,258.2958 144.057,259.4804 140.1741,257.7991 143.869,260.585 139.7355,258.9107"/>
    <polyline points="152.5751,275.416 152.086,279.408 152.5755,275.4164 156.1462,275.8156 156.8095,274.8208 151.8353,269.1834 147.2633,267.5612 147.1904,273.1886 154.3025,276.131 157.3968,275.3998 164.8534,279.4982 167.5879,278.0252 162.4469,281.453 160.7888,286.4273 163.4994,288.8517 152.1487,284.0486 198.4952,303.6602"/>
    <polyline points="197.9769,294.1992 198.539,298.8348 197.9136,257.5972 196.4955,251.2438 228.5021,238.9762 227.3654,246.0929 227.6572,282.0397 198.6955,294.4967 190.8946,291.2694 189.1351,289.6349 189.9432,290.6407 190.8946,291.2694 188.5833,288.3983 188.2666,283.1648 188.3681,287.1077 173.1252,285.1028 164.3444,281.4593 158.4466,276.6705 152.6627,269.5651 150.9324,268.9158 153.058,264.2612 147.9491,262.2232 153.4436,263.8952 153.7474,263.2306 148.8485,261.3984 147.4703,259.1076 144.8479,258.2958 148.8508,259.5667 153.825,262.8828 161.1205,264.8724 169.2327,262.4832 162.371,265.6952 153.6828,262.9543 162.5614,265.4671 169.6526,262.0192 168.0843,258.9034 169.0792,257.2454 177.7011,251.9395 181.3489,252.2712 175.7114,260.5615 173.7217,260.5615 169.4194,262.7368 175.0598,260.4145 175.3798,261.5563 172.7269,264.5409 170.5495,264.3106 173.3274,264.7564 174.2477,262.3114 170.4444,264.0172 175.4292,261.6727 175.0598,260.4145 179.2355,255.9769 176.9901,259.3822 176.0593,259.1425 176.9898,259.3826"/>
    <polyline points="187.2834,247.8319 196.4955,251.2438 186.8599,247.675 196.9346,250.9447 226.4482,239.3382"/>
    <polyline points="222.8226,237.0083 228.5021,238.9762 222.8226,237.0083 215.9035,227.961 210.8627,224.548 218.2692,207.7303 223.1128,190.0049 224.9923,172.4666 223.0895,189.9618 218.2324,207.7764 210.6475,225.1771 207.8278,229.4516 210.8623,225.0789 208.541,227.7318 205.5565,227.7318 205.5565,228.7267 208.2095,229.0583 216.1682,233.0376 218.1578,235.3589 219.1527,239.3382 216.1682,242.3228 209.8675,243.9808 204.5617,246.6337 196.603,247.9602 187.3179,247.9602 194.2817,256.2505 196.2714,266.5305 192.6236,278.8002 187.9811,283.1111 187.9811,285.4324"/>
    <polyline points="163.1102,273.1628 161.1205,273.4943 159.1308,271.8363 155.9314,275.93 154.3025,276.131 155.9314,275.9294 156.5744,274.404"/>
    <line x1="152.086" x2="152.1487" y1="279.408" y2="284.0486"/>
    <line x1="135.8496" x2="136.0947" y1="227.8104" y2="225.957"/>
    <polyline points="147.5243,210.1564 146.1979,213.8041 150.8405,215.7938 152.1669,211.8144 155.483,208.8299 155.3637,205.9595 157.2582,205.8315 153.3787,207.204 155.8147,206.5087 151.5037,206.177 155.483,205.1821 156.5472,208.1494 152.8066,211.5916 150.6147,207.8609"/>
    <polyline points="174.3253,207.2312 171.6807,187.3106 171.611,169.2659 222.6972,154.5094 225.3488,155.2102 224.9923,172.4666"/>
    <polyline points="220.8107,178.3215 219.1527,190.9228 215.8365,194.2389 203.8985,198.2183 203.5669,190.2596 206.883,186.6119 208.2095,181.9693 214.5101,180.6428 219.8159,177.99"/>
    <polyline points="215.8365,167.71 216.8314,165.3887 219.1527,163.399 218.821,167.3783 216.8314,169.6996 218.1578,173.3474 215.1733,174.3422 213.8469,176.6635 211.8572,174.6738 213.1836,172.0209 213.1836,168.0416 215.1733,165.0571 215.1733,167.71"/>
    <polyline points="211.5255,169.6996 212.1888,172.0209 211.194,173.3474 210.5308,172.3526 211.5255,169.6996 209.5359,169.0364 204.2301,170.6945 204.2301,168.7048 201.9088,167.3783 206.2198,165.7203 210.8623,168.7048 207.2146,168.0416 208.541,169.0364"/>
    <polyline points="205.5565,176.0003 205.8882,177.6583 207.5463,178.9847 204.5617,179.3164 203.5669,177.99 201.9088,178.6532 203.2353,180.3113 207.5463,180.9745 206.2198,185.617 199.9191,192.9125 194.2817,190.2596 192.6236,185.2854 195.9398,183.2957 197.2662,185.9487 199.9191,186.9435 203.2353,183.6274 203.8985,181.306 204.8933,181.306 204.2301,183.959 200.2508,187.9383 196.2714,186.6119 195.2766,184.2906 198.5927,179.648 201.9088,178.6532"/>
    <polyline points="198.9243,172.6841 199.5876,173.679 198.9243,174.3422 198.9243,172.6841 197.2662,172.6841 196.9346,174.6738 197.5978,169.3681 200.2508,167.3783 200.914,169.0364 202.572,169.3681 203.2353,171.3577 204.8933,172.3526 204.8933,174.0106 202.572,177.3268 197.5978,178.9847 196.2714,178.3215 196.603,177.3268 200.2508,176.3319 201.9088,172.3526 200.5823,170.3628 197.2662,170.0313 195.2766,171.026 199.9191,171.3577 200.914,172.6841 200.5823,174.3422 194.9449,176.6635 194.2817,172.6841 195.2766,171.026 195.2766,175.337 194.9449,173.3474 192.9553,173.679 194.2817,177.99 193.2868,181.306 189.6391,183.6274 189.3075,181.306 191.2972,178.6532 190.3023,176.0003 192.2921,175.337 192.9553,173.679"/>
    <polyline points="194.6133,177.99 196.603,180.9745 193.2868,183.6274 192.6236,182.6325"/>
    <polygon points="191.2972,186.9435 193.2868,190.9228 196.603,192.9125 196.603,199.8764 183.6701,204.8506 180.354,204.1874 179.0275,200.208 178.3643,191.2545 185.9914,189.5964"/>
    <polyline points="189.3075,191.2545 189.6391,195.5655 191.2972,196.2287 189.6391,197.5551 189.6391,200.208 188.6443,200.8712 188.3127,198.2183 186.9862,198.5499 186.6546,197.5551 188.6443,195.897 188.6443,191.2545"/>
    <polyline points="184.3334,187.6068 183.6701,185.617 180.354,185.2854 181.3489,180.9745 178.6959,174.3422 182.0121,173.679 183.0068,174.3422 184.0017,172.3526 185.9914,173.0158 187.9811,175.337 188.3127,182.3009 186.9862,179.648 186.9862,175.6687 184.9966,174.0106 184.3334,176.9951 181.0172,174.6738 180.354,175.337 181.0172,178.9847 183.3385,180.6428 181.6804,184.6222 182.6753,184.9538 184.3334,183.6274 185.6598,185.617 188.3127,182.3009 187.6495,183.6274 188.3127,184.9538 190.9656,183.959 191.6289,184.6222 185.9914,188.27 177.3695,190.2596 179.0275,205.1821 181.6804,206.177 184.6649,210.488 187.6495,226.0738 192.2921,231.3795 197.2662,230.3848 192.6409,231.8472 197.2662,230.0531 197.2662,209.1615 195.9398,208.8299 186.6546,212.1461 185.9914,210.488 198.9243,206.5087 198.9243,229.7215 199.5876,230.0531 200.5823,229.0583 200.914,224.4157 200.914,205.5138 212.5204,201.2028 213.5152,201.8661 212.1888,203.5241 203.5669,206.177 202.2404,207.5034 202.2404,228.0635 203.5669,228.395 207.5463,225.4106 212.1888,216.457 214.5101,200.5396 217.1629,194.9022 220.4791,190.9228 221.8056,181.6377 221.1423,176.0003 213.5152,179.648 209.2042,179.9796 209.5359,176.9951 206.5514,176.6635 205.8882,172.0209 209.5359,170.3628 210.1991,171.026 209.2042,173.0158 210.8623,175.0054 210.8623,176.6635 209.5359,176.9951 209.8675,177.99 211.194,177.99 212.5204,176.3319 213.8469,177.99 215.1733,177.99 215.8365,175.6687 219.4842,173.3474 218.1578,170.3628 219.8159,167.71 220.8107,161.4094 218.4895,162.4041 216.4997,164.7254 216.1682,163.399 214.1785,164.3938 212.1888,168.0416 206.883,164.7254 203.8985,164.7254 197.9295,167.0467 191.2972,174.3422 189.3075,175.337 188.9759,176.9951 189.9708,178.6532 188.6443,180.3113"/>
    <polyline points="174.2679,170.0468 225.3488,155.2102 167.6924,172.0727 164.9582,176.5713 164.9943,181.7783 166.1112,183.6453 171.675,185.8302 174.316,188.1353 174.2679,170.0468 171.611,169.2659 174.0534,169.6996 222.4688,155.7719"/>
    <polyline points="198.2943,149.4816 195.2577,162.4354 179.9328,166.862 178.8886,159.6435"/>
    <polyline points="161.1205,146.1552 162.4469,155.1087 165.4315,161.4094 169.1207,164.9705 165.7988,161.5954 162.4525,154.5011 161.0594,145.9495 162.31,136.7178 165.5797,127.9181 168.9107,122.8776 178.6532,124.3987 194.4856,122.7542 203.0333,124.7999 202.7942,147.9213 187.1226,154.4663 169.1207,164.9705 165.2374,163.8437 162.3242,160.5958 159.3646,153.633 158.1167,145.1477 159.1978,135.9014 162.0526,127.0291 164.9536,121.9043 179.2961,125.6101 187.2131,126.4962 203.0333,124.7999 185.6598,126.2584 165.0998,121.6158 161.4521,127.2533 158.7992,135.5435 157.8043,145.8235 158.7992,152.7874 162.1153,160.7461 164.4366,163.399 169.4108,164.7254 178.3643,159.7513 179.3591,161.7409 179.6908,166.0519 172.0637,168.7048 170.7372,170.6945 167.4211,171.6893 164.4366,176.9951 165.0998,182.6325 171.4004,185.9487 173.7217,205.8454 173.0585,206.5087 170.074,205.8454 168.0843,206.8402 155.8147,217.1202 151.8353,215.4621 155.8147,212.4776 157.4728,208.8299 157.1411,202.8609 155.483,200.5396 152.1669,200.208 146.1979,202.8609 136.5811,213.8041 133.9282,220.1048 135.2547,227.4002 134.2599,239.6699 135.5863,245.3073 138.5708,251.2763 140.2288,264.5409 146.1979,267.1937 147.1928,273.1628 152.1669,275.4841 151.8353,283.7743 152.4985,284.4375 197.2662,303.3395 199.2559,303.3395 221.8056,293.3911 222.4688,292.7279 222.1372,284.7692 227.4429,281.453 227.4429,243.9808 228.4378,239.3382 221.8056,236.3537 216.4997,228.7267 210.8623,224.7473 218.4895,207.1719 223.132,189.928 225.1217,172.0209 225.4533,155.7719 223.4636,154.4454 221.4739,154.4454 195.6082,161.7409 195.6082,158.0932 198.261,149.4713 202.9036,147.15 202.9036,124.932 195.2766,122.6107 178.6959,124.2687"/>
    <polygon points="202.2404,191.9177 200.914,194.5706 201.2455,202.1976 213.8469,198.2183 215.5049,196.2287 214.8417,195.5655 202.9036,199.5447"/>
    <polygon points="197.5978,200.8712 183.6701,206.177 184.3334,207.5034 198.9243,202.5293 199.2559,194.5706 197.9295,193.2441"/>
    <line x1="180.5467" x2="169.2476" y1="214.7946" y2="226.0568"/>
    <polygon points="182.3273,222.6188 182.9787,223.649"/>
    <polygon points="196.2714,229.3899 192.6236,230.0531 187.6495,223.4208 186.6546,213.8041 194.9449,210.488 196.2714,210.8196"/>
    <polygon points="203.5669,227.0686 203.5669,207.8351 211.5255,204.8506 212.5204,205.1821 211.5255,215.1306 207.2146,223.7525"/>
    <polyline points="218.821,266.5305 222.1372,257.5769 220.1475,247.2969 217.8262,245.9705 211.8572,250.2815 205.8882,251.6079 202.2404,265.5356 206.5514,271.5047 217.1629,268.5202"/>
    <polygon points="310.8002,433.2002 310.8002,87.6 526.8003,87.6 526.8003,433.2002"/>
    <polyline points="310.8002,768.0 310.8002,454.8002 310.8002,454.8002 526.8003,454.8002 526.8003,768.0"/>
    <polyline points="73.2,768.0 73.2,454.8002 73.2,454.8002 289.2002,454.8002 289.2002,768.0"/>
  </g>
  <g fill="none" id="layer2" inkscape:groupmode="layer" inkscape:label="2" stroke="#000000" stroke-width="1.0" style="display:inline">
    <polyline points="479.7043,266.3833 467.0156,272.0863 466.5265,273.8904 468.5068,274.8979 469.6361,279.1519 469.5326,282.8259 466.9269,283.8894 460.9895,283.2291 447.69,284.8266 442.1592,284.0224 437.013,280.9713 436.4506,271.5201 437.1673,274.0153 438.7119,273.7108 429.7643,265.9454 429.7809,256.2101 430.5104,252.7327 432.535,253.0836 431.6566,251.3646 438.0702,255.0687 437.7855,254.3427 439.3892,256.0914 442.0273,256.3689 431.015,250.7288 427.1341,250.2537 430.0869,252.507 421.9729,256.7365 421.9843,261.9277 429.6567,258.7407 425.3002,260.8951 429.6349,259.1805 428.2634,259.709 429.7342,265.4484 435.6702,270.8258 434.2087,271.9936 431.0977,270.7674 427.53,259.9915"/>
    <polyline points="431.6827,261.0923 432.7209,266.6296 439.9886,270.7826"/>
    <line x1="434.2087" x2="433.5082" y1="271.9936" y2="269.2381"/>
    <polyline points="429.9522,264.8992 429.26,258.3237 430.2983,253.1324 429.6062,252.7863 430.5104,252.7327 428.5018,251.0881 431.9051,251.391 442.0273,256.3689 438.4119,254.923 437.9121,255.555 436.8739,259.3619 438.6043,260.7462 439.6425,260.4001 439.6425,256.5932 445.7782,257.1667 450.3711,255.901 452.1015,261.4384 450.7171,261.4384 448.6406,256.5932 446.9102,257.2854 449.3328,262.1306 448.6406,262.8228 445.5259,256.5932 449.3328,255.555 450.3711,254.1707 450.025,248.2872 451.7554,246.5569 448.9868,246.5569 447.8433,244.6292 451.5457,239.6639 454.3773,263.8125 452.1015,238.943 454.8702,241.0195 458.7296,250.0007 454.4518,239.8875 455.0875,235.8844 452.4476,234.0979 448.6406,235.1361 445.5259,232.7135 446.9102,230.9832 453.8319,230.291 454.178,233.4057 459.5094,233.395 457.9849,223.7154 456.2545,221.2929 460.4074,211.6025 459.3692,211.6025 455.2162,220.2545 450.7171,214.7173 448.6406,214.3711 449.6789,203.6426 451.0633,203.6426 454.8702,207.1035 454.1236,194.1357 453.4685,191.5512 452.0638,190.1852 450.7542,190.3237"/>
    <polyline points="441.792,188.369 445.2827,188.6112 444.007,189.1037 446.696,202.7317 445.853,210.9734 443.3026,210.583 448.2676,210.1462 448.1146,212.0974 448.6694,205.0543 449.833,203.2709 451.4093,205.373 450.6725,214.9851 451.3259,205.2827 454.903,208.8315 460.3694,210.8325 455.3256,221.7216 451.4644,220.8436 453.8319,221.2929 450.025,217.832 445.935,216.7152 446.4991,213.3886 445.1816,211.2035 443.3026,210.583 441.9665,211.8839 442.3122,215.1817 444.8337,215.0633 446.2181,216.4476 444.6628,217.0665 440.6725,222.4037 438.6379,229.3327 441.3207,222.9395 447.2564,215.7555 450.025,215.7555 451.7554,217.1398 448.7798,214.8117 447.1124,215.7437 450.5351,215.7295 453.3134,218.1448 454.9996,221.6995 455.9084,221.6389 452.1015,222.3311 448.3316,220.9443 455.3959,222.5796 457.1446,232.3221 454.0538,232.038 454.2258,230.5249 447.9599,232.4367 448.6961,232.6945 448.668,235.5144 447.2384,235.3545 444.7015,240.5734 442.4112,241.0195 441.373,244.1343 436.5278,244.8264 441.3612,244.4737 445.1799,233.0597 441.719,239.9813 435.8356,239.9813 430.9905,243.096 433.413,243.4421 436.5278,241.3656 438.2582,241.3656 431.3365,235.1361 433.178,234.5554 434.3966,235.7543 432.8102,233.9948 433.0669,231.3292 438.6043,233.0597 439.9886,234.4439 438.2582,236.5204 436.5278,236.5204 433.7591,235.4822 432.3748,233.7518 433.2832,223.9151 427.2552,226.0255 426.78,228.681 427.7719,228.463 423.7283,231.3932 424.146,234.5315 426.481,239.432 430.8153,243.3279 436.6316,245.4491 437.5529,244.4264 437.4006,247.0421 435.2012,247.5248 445.6598,246.099 447.8433,244.6292 444.8337,246.2107 435.8356,247.5951 432.0287,246.5569 430.3804,244.2419 431.1161,245.8626 435.7128,247.7411"/>
    <line x1="434.2415" x2="435.0337" y1="252.5371" y2="252.932"/>
    <polyline points="426.6963,253.338 426.209,254.8497 425.9045,252.995 426.8666,252.1066 426.2674,252.5725"/>
    <line x1="430.8153" x2="435.5048" y1="243.3279" y2="240.7853"/>
    <line x1="431.6827" x2="426.4914" y1="237.2126" y2="238.943"/>
    <polyline points="438.9503,235.1361 434.7974,234.79 433.413,233.0597 434.1052,232.3675 431.9387,232.5537 432.7018,227.0111 425.2648,230.2636 423.7113,232.5481 423.8615,231.1614 432.751,226.6208 432.3748,225.0997 431.6827,226.4841 427.2552,226.0255 430.8776,227.3087 432.3745,226.7592 433.5667,220.9322 434.1052,221.6389 436.5278,218.1781 438.6368,217.66 433.5816,215.9476 438.9503,216.7938 438.7174,214.5099 436.3513,215.3233 439.31,216.6259 440.3226,215.6635 437.5629,216.2009 439.4047,213.5035 441.7706,212.7058 442.0651,214.7173 437.2199,219.9085 435.4896,228.2145 437.2968,221.2464 441.2826,215.9303 445.5259,214.3711 443.1034,210.9104 443.4494,209.8721 445.1799,210.5642 446.9102,214.3711"/>
    <polyline points="449.229,203.3838 446.5946,203.3838 447.89,202.3313"/>
    <polyline points="446.0371,177.0416 446.1752,181.5179 450.0347,181.5179 450.2223,176.6969 447.8222,177.4386 448.1219,170.1224 450.9009,164.4847 456.6009,159.7251 457.3536,146.2718 463.7974,142.8802 468.9827,135.9655 469.7603,137.0335 468.8342,142.8924 466.8035,147.0107 461.3273,151.5914 460.5414,162.5844 453.1058,169.954 452.1759,176.093 447.8222,177.4386 444.0703,176.4565 444.9155,166.2052 449.9163,157.5192 449.8523,143.1062 451.3975,140.2701 456.171,136.8896 459.6336,130.6358 460.7476,130.0561 464.8855,131.1982 463.0398,139.1838 463.9199,139.8953 461.6828,142.3275 456.7595,144.4369 455.4124,146.0147 454.5417,159.1707 449.1729,163.9961 447.3038,169.8861 446.5157,177.1843 447.6149,167.0271 453.7489,156.1127 453.9205,143.8545 454.991,141.2813 459.4018,137.7229 463.9399,130.8781"/>
    <polyline points="463.9101,136.7487 465.8341,135.1411 468.9827,135.9655"/>
    <polyline points="462.83,141.3478 456.2545,144.8086 457.9849,145.1547 463.8683,142.386"/>
    <polygon points="464.9065,135.1183 469.4056,136.1565 469.4056,141.0017 466.983,146.539 460.7536,152.4224 460.7536,161.4206 459.7153,163.8431 453.4858,169.0343 452.1015,172.1492 452.1015,175.6099 450.025,176.9943 450.025,180.8012 448.9868,181.8395 446.5642,181.8395 445.872,177.6864 443.7955,175.9561 443.7955,171.1109 445.1799,163.8431 449.6789,157.2676 449.3328,143.4243 451.0633,139.9634 455.9084,136.5027 460.0614,129.9271 464.9065,131.6575"/>
    <polyline points="468.7134,223.7154 459.6229,231.2496 470.3338,223.3271 465.0657,218.2234 462.5463,212.8893 458.2216,223.6687 456.6459,222.1321 453.536,222.7072 453.4415,230.553 448.9868,232.3675 445.9807,231.7439 444.3877,234.681 445.9807,231.7439 448.3105,230.8492 447.9866,229.6691"/>
    <line x1="451.5886" x2="449.9956" y1="234.8267" y2="237.613"/>
    <polyline points="451.7554,245.8647 448.9868,243.4421 451.0633,239.9813 451.4093,236.5204 460.0614,233.7518 461.7918,235.4822 463.1761,238.943 462.83,241.7117 464.2143,243.4421 463.5222,252.7863 464.5605,256.5932 463.8683,257.2854 461.0996,258.3237 460.0614,257.6315 456.2545,247.249"/>
    <polyline points="461.8267,245.1611 459.1058,246.3821 458.7296,250.0007 460.8671,258.5787"/>
    <polyline points="469.7517,265.9375 463.1761,265.9375 461.0996,264.5531 458.6771,264.5531 454.8702,266.2835 451.7979,265.6869 450.5313,268.6612 445.9188,270.7996 443.0812,271.4565 440.0578,270.4185 433.0015,267.1719 431.8844,263.1671 431.982,257.682 433.3978,253.0843 440.6808,256.9393 440.6808,261.0923 445.872,263.1688"/>
    <polyline points="449.9288,264.9747 451.4093,265.9375 446.5642,263.861 445.5259,270.4365 446.9102,276.666 451.7554,283.2416"/>
    <line x1="446.5642" x2="437.566" y1="283.2416" y2="277.7043"/>
    <polyline points="447.6024,270.0904 454.3773,263.8125 454.3413,266.6566 468.2919,261.0391 466.8695,243.1362 460.6203,245.8058 466.8827,243.2016 464.0607,244.5997 462.1524,235.947"/>
    <polyline points="475.9833,239.4888 463.2083,240.2014 476.9668,238.6364 473.8137,233.7705 472.0262,226.2366 461.5471,234.5384 460.7189,233.7646 455.0875,235.8844 450.7912,234.6634 448.6406,241.3656 444.8337,244.8264 442.4112,244.4804 447.1069,233.4576 447.2384,235.3545 447.945,234.0152 445.2314,237.9477 443.9931,243.1469 444.0991,245.7553 445.7921,247.7816 444.886,246.2447 443.1882,246.544"/>
    <polyline points="445.5259,256.5932 436.8739,254.5167 431.6827,250.7098 428.2218,250.0176 430.6444,251.0559 429.6062,251.0559 428.2218,253.1324 427.1341,250.2537 428.9811,244.6472 428.0194,243.7757 426.6963,253.338 428.0204,243.7771 431.0113,245.2726 428.5935,244.3904 424.9261,240.2062 426.1249,241.0212 423.867,237.1846 423.7629,233.3489 425.0531,232.5717 425.0296,234.5865 431.9387,232.5537 430.9905,228.5606 425.4531,231.6753 432.1827,228.4726 436.5243,230.9035 445.6889,232.2816 436.3195,230.9772 432.1851,228.4342 433.1939,229.026 432.5375,228.3121 433.9298,215.3233 441.8135,212.8027 438.6967,203.3654 438.2402,196.675 439.7972,188.9566 444.0004,187.6788 445.2827,188.6112 446.1174,191.5011 447.89,202.3313 450.7542,190.3237 454.2624,189.537 456.2569,190.3254 457.6946,199.0197 456.2133,208.2237 454.2213,206.25 458.3105,209.4855 463.4689,210.6328 466.4892,217.7154 471.6129,222.7007 470.7941,222.8754 472.5588,222.6177 473.6919,223.5711 475.2285,233.2379 479.7473,240.3187 477.9653,242.1083 465.3544,243.2766 464.1061,244.4686 463.6832,252.4748 466.2909,261.4384 468.3674,260.0541 466.637,243.4421 477.3655,242.0578 479.0959,241.0195 479.442,239.2891 474.9429,232.7135 473.5586,223.7154 466.983,218.5242 462.83,210.2182 456.2545,208.1417 457.6388,197.4132 455.5623,189.7993 452.7937,189.4533 450.025,190.8376 448.2946,200.8739 447.2564,201.2201 445.5259,189.1071 444.1416,187.7229 439.9886,188.415 438.6043,191.1836 437.9121,197.7592 438.9503,206.0652 441.0268,212.2947 433.413,215.4094 433.0669,223.3694 427.5296,225.4458 426.4914,228.2145 423.3766,231.3292 424.0688,238.5969 427.5296,243.4421 427.5296,245.8647 425.7993,254.1707 421.6462,256.9393 421.6462,261.0923 422.3384,261.7844 426.8375,260.0541 430.6444,270.0904 432.3748,271.4747 435.8356,271.1287 436.8739,272.1669 437.2199,281.5112 441.373,283.9337 445.1799,284.6259 453.8319,284.6259 460.0614,283.2416 467.6752,283.5877 469.4056,282.5494 470.0977,277.7043 481.1724,272.1669 481.1724,269.3983 479.0959,265.9375 470.0977,264.2071 465.4589,262.1801 468.8266,264.0156 479.7043,266.3833 481.1533,269.3128 481.0479,272.9214 469.4004,278.2635 468.0213,274.9356 465.5987,275.9738 458.3309,276.3199 459.3692,274.9356 465.9448,271.8209 461.0996,268.7062 460.1787,265.6686 466.2788,266.3032 460.2341,265.1861 460.3676,264.2299 460.8363,268.24 467.0156,272.0863 457.137,276.5837 465.1657,276.2905 468.5068,274.8979 465.1657,276.2905 467.036,280.2698 466.9269,283.8894"/>
    <polygon points="454.3413,266.6566 438.4222,260.5888"/>
    <polygon points="461.4458,360.7641 450.3711,366.3014 449.3328,365.9553 449.3328,361.4562 448.2946,361.1101 403.996,382.9133 391.5371,387.7585 382.1928,390.181 372.8486,390.8732 358.3132,388.7967 347.9307,384.6438 344.816,381.529 345.8542,378.0682 349.6611,375.2995 371.4643,362.4945 386.6919,354.8807 447.6024,327.194 462.1379,322.6949 474.5968,320.6185 482.2107,320.6185 488.7862,322.6949 492.5932,327.8862 490.8627,334.8079 481.8646,343.4599 463.5222,353.4963 462.83,359.3797"/>
    <polygon points="468.4691,343.7866 460.5359,340.2175"/>
    <polyline points="455.9084,342.7677 455.2162,346.2286 453.1397,347.959 448.9868,348.3051 445.5259,346.2286"/>
    <polyline points="447.6024,341.7295 447.9485,343.4599 449.6789,343.1139 447.6024,341.7295 449.9084,342.6218 463.2876,336.221 463.2408,338.9158 463.2876,336.221 449.2868,329.9929 435.8993,336.221 435.8934,337.579 435.8993,336.221 449.9084,342.6218 450.3711,344.8442 454.524,344.1521 456.2545,346.2286 456.5622,342.2546 456.1313,346.7941 450.8296,348.5096 446.5634,347.6967 444.7607,345.7337 444.7905,342.2546 445.8239,340.7556 444.7905,342.2546 445.2799,343.3087 448.5416,344.8079 453.0709,344.8079 456.5622,342.2546 454.7224,340.3186 453.3775,340.9622 454.3427,342.9567 450.7698,344.0943 447.0812,342.9567 447.2348,341.4"/>
    <polyline points="440.3347,338.6148 440.6808,341.7295 443.4494,343.1139 444.8337,342.4217 444.8337,340.6913 441.373,338.6148 440.3347,338.6148 440.8068,341.2156 438.9338,341.8043 432.3748,341.0373 430.862,335.8637 434.4866,338.3479 438.9538,338.3479 439.9049,338.051 436.5278,336.1922 436.1817,337.5765 438.5139,337.4156 435.2161,337.5167 432.797,335.8637 435.1566,334.2223 440.7157,333.9804 436.6109,333.2048 432.5388,333.9804 430.862,335.8637 430.8555,339.3059 434.4741,341.8043"/>
    <polyline points="431.9194,334.4095 372.9455,362.0664 347.7545,376.9697 345.6673,378.7565 344.9807,381.9194 347.7545,384.4441 357.6915,388.6005 368.5281,390.7798 381.5508,390.4392 396.4961,386.1648 417.5085,376.8797 478.5294,346.0818 485.0153,341.4827 490.2733,336.1417 492.7845,328.1344 490.0938,323.5422 487.2344,322.0094 481.8466,320.8202 474.8827,320.8669 453.182,325.6083 433.4694,333.6942"/>
    <polygon points="443.6436,332.6182 440.5073,331.2072"/>
    <line x1="461.7918" x2="450.3711" y1="354.8807" y2="360.7641"/>
    <polyline points="449.6432,366.7502 462.874,360.0961 462.9747,354.2854 460.7536,353.8424 449.6789,359.7258 449.6432,366.7502 443.6689,363.8795"/>
    <polyline points="415.4618,369.7002 408.3196,366.1283 422.826,359.1368 418.6461,357.1063 417.8393,354.1885 417.4932,359.3797 414.7246,362.4945 406.4186,363.8788 400.8813,362.1483 399.1509,359.0336 398.8048,354.1885 398.1126,359.3797 400.2397,362.0875 387.4969,355.7151 408.3196,366.1283 422.826,359.1368 418.6461,357.1063 417.8393,360.7641 418.8775,358.3414 418.6333,353.7995 417.8532,361.009 412.302,363.6815 408.3975,364.0598 401.2793,362.6076 399.1709,361.009 398.4847,357.1938 394.3393,359.1368 398.4847,357.1938 408.4951,358.6876 415.7628,356.9571 414.7246,355.2267 411.6099,356.9571 406.7647,357.3032 401.9195,355.2267 403.0204,356.3955 408.7152,355.0679 413.9895,356.1241 411.7715,354.6785 414.3456,355.5119 414.3508,356.3955 408.7281,355.2693 402.6861,356.5485 405.2841,357.3977 414.1757,356.5485 416.111,354.2453 414.3189,351.0813 411.7396,350.2542 402.9599,351.0813 400.9685,354.2453 402.6947,356.5512 405.6475,354.6785 408.7204,354.3871"/>
    <polyline points="415.0706,351.4198 407.4569,349.6894 402.9578,350.7277 398.4383,353.7995 401.2132,357.2409 408.3498,358.6806 415.5957,357.2409 417.8303,355.6558 418.6333,353.7995 417.8992,351.9573 412.4349,349.3669 404.8761,349.3762 401.5758,350.4068 398.4383,353.7995 398.511,359.1368"/>
    <polyline points="404.3421,375.2995 388.4223,381.529 372.5025,384.6438 357.2749,383.9516 346.8924,380.1447"/>
  </g>
  <g fill="none" id="layer3" inkscape:groupmode="layer" inkscape:label="3" stroke="#000000" stroke-width="1.0" style="display:inline">
    <polyline points="178.3386,599.868 178.4129,613.6597 171.6434,611.0649 178.4129,613.6597 178.3386,599.868 178.4129,613.6597 171.6434,611.0649 178.4129,613.6597 178.3386,599.868 178.4129,613.6597 171.6434,611.0649 178.4129,613.6597 178.3386,599.868 178.4129,613.6597 171.6434,611.0649 178.4129,613.6597 178.2614,585.5125 178.1453,610.0869 177.3141,611.1951 173.7122,605.0996 174.2663,602.0518 176.4828,606.2079"/>
    <line x1="172.8809" x2="169.5562" y1="599.0041" y2="597.8958"/>
    <line x1="177.5912" x2="178.1453" y1="595.4022" y2="590.415"/>
    <line x1="182.5002" x2="184.1397" y1="586.8475" y2="583.4276"/>
    <polygon points="187.767,587.8158 189.312,600.2374 189.4258,601.1527 187.767,587.8158 197.4545,584.4586"/>
    <polyline points="193.2294,586.0853 195.6568,588.4475 196.2684,593.4863 194.1169,597.9723 191.6316,599.2006 194.264,599.392 196.0392,598.2225 198.1928,593.7243 197.6107,588.7709 196.2858,586.8887 192.6401,586.1268 190.845,587.2791 188.6822,591.7219 188.5986,594.5015 189.2868,596.9178 192.3575,599.5602 189.312,600.2374 189.4258,601.1527 199.0442,597.6526 197.4545,584.4586 199.0442,597.6526 196.1547,597.6188 192.2758,599.5583 191.9987,599.0041 194.2153,597.6188 193.9382,596.7876"/>
    <polyline points="195.8777,588.4755 193.6611,586.259 194.2153,585.7049 197.5401,588.7526"/>
    <polyline points="202.1929,582.6244 202.4946,580.9382 199.6494,577.3427 199.6851,578.1489 184.1397,583.4276 180.1951,583.4276 182.5002,586.8475 187.109,627.1459 206.0984,619.6407 206.1375,615.9202 201.9044,580.1898 199.8996,577.2578 201.9732,576.2846 204.4667,572.1285 203.9126,571.2973 198.9254,570.4661 193.9382,568.2495 186.6167,566.358 199.28,570.5858 205.0273,571.6835 205.0209,566.31 206.9604,560.7687 207.2375,556.6127 208.3457,555.5044"/>
    <polyline points="214.9954,556.6127 212.7788,551.6254 212.5018,546.0841 213.333,543.8675"/>
    <polyline points="217.2119,541.651 216.6578,546.6382 215.8265,547.4694 216.2793,550.8674"/>
    <polyline points="219.9826,545.2529 220.5367,549.9631 216.9348,553.0108 220.4555,550.6183 220.8798,549.1097 220.0989,546.5656 221.0908,546.0841 221.645,549.9631 219.9826,552.7337 217.489,554.1191 219.4531,553.7209 216.8345,554.2111 215.2381,553.6711 214.2811,552.0889 213.61,545.2529 213.8871,551.3483 215.5495,553.842 214.2268,554.8519 213.0975,553.2228 213.0833,544.4073 217.0113,540.5513 218.9336,539.9559 220.7603,540.0485 223.4296,541.7923"/>
    <polyline points="220.2597,539.1574 213.8871,534.1701 208.3457,535.0014 204.4667,538.3261 202.5273,541.928 201.4191,546.9153 201.9732,549.4089"/>
    <polyline points="191.4445,546.3612 190.8904,543.5905 191.7216,543.0363 192.5528,537.772 197.5401,531.9536 202.8043,531.1224 208.0686,534.1701"/>
    <polyline points="203.7165,531.6566 207.3367,534.0255 205.8247,536.2992 209.2238,534.5957 213.607,534.0305 217.4169,536.1304 217.8677,536.8608 215.5398,535.5023 219.2899,537.6906 223.4296,541.7923 224.8435,549.2451 222.7965,555.0982 219.644,560.3603 221.0349,567.7175 219.2619,573.2287"/>
    <polyline points="220.7983,585.118 223.9067,585.1649 224.0962,575.8146 222.6893,574.3844 217.5236,572.6793 215.503,573.5415 221.645,575.1762 221.0908,584.0425 221.7897,585.133 217.4626,584.3555 214.541,594.3763 211.23,599.684 207.3272,603.2255 205.2569,608.4873"/>
    <polyline points="206.1292,605.0996 206.6833,603.4372 213.8871,595.1252 216.6578,587.3673 216.9348,584.5966 215.7351,583.7853 220.2198,585.2507 221.0925,584.5287 221.2258,577.3917 220.4018,575.2502 215.503,573.5415 216.1036,581.2717 215.5495,579.6093 212.2246,577.1157 208.6228,576.0075 205.0209,576.2846 205.298,586.8131 212.2246,589.0017 215.1791,587.6427 215.3093,579.4498 213.2028,577.7322 207.9889,576.0288 204.7028,576.5195 205.5044,587.0351"/>
    <polyline points="208.8999,587.9214 213.333,588.7526 215.2724,587.0901 215.2724,580.9947 213.0559,578.7781 204.7028,576.5195 214.0323,579.3113 215.7282,582.1747 215.6678,586.0335 217.2119,584.3195 220.5367,585.1507 223.3074,584.8736 224.1386,583.7654 223.8616,575.4533 219.4284,573.2368 219.1514,571.2973 220.5367,567.6954 219.4284,559.9375 223.0303,554.3961 224.6927,549.6859 224.6927,546.9153 223.5845,542.2051 221.645,540.2656 217.766,539.9886 213.0559,537.2179 212.2246,535.8326 205.1758,533.2265 205.4429,532.4679 202.8215,531.1089 192.1613,532.5598 190.6059,533.2206 185.5809,542.1566 185.0316,553.6583 183.4265,558.7112 185.6261,550.7942 185.3491,541.928 187.0115,538.3261 190.8904,532.7848 196.4318,531.9536"/>
    <polyline points="209.7311,564.3706 208.3457,565.7559 205.0209,573.7909 203.0814,572.1285 183.4096,578.7781 178.9765,579.3322 178.6994,577.1157 195.6006,571.5744"/>
    <polyline points="176.8059,573.0347 176.2695,574.3472 174.6298,568.9491 175.4375,570.496 173.0433,573.7768 170.6841,574.9546 174.554,572.3975 166.7855,576.5616 165.4001,574.8992 163.1836,574.6221 160.69,576.0075 157.6422,579.0552 155.4257,582.9341 157.6422,583.2112 159.3046,584.5966 158.1346,583.3473 155.8455,583.8147 155.7961,582.306 158.1346,583.3473 159.8491,584.9382 152.5179,588.9981 152.6228,590.3122 153.3169,590.374 159.4684,588.4896 159.7562,606.5088 166.4732,609.0833 168.1708,607.3161 167.8938,591.2462 170.3874,591.2462 173.4352,595.4022 175.0976,594.571 174.5434,597.0647 175.3746,599.0041 173.9893,599.5583 173.9893,600.9436 172.8809,602.0518 171.4957,608.4245 169.2791,598.7271 169.002,589.3068 170.6644,587.0901 169.2791,586.259 170.8892,586.9336 168.4914,585.2604 159.4684,588.4896 159.7562,606.5088 166.4732,609.0833 159.7562,606.5088 159.4684,588.4896 159.7562,606.5088 166.4732,609.0833 159.7562,606.5088 159.4684,588.4896 159.7562,606.5088 166.4732,609.0833 159.7562,606.5088 159.4684,588.4896 159.7562,606.5088 166.4732,609.0833 163.702,615.5916 163.0878,621.2912 165.6115,622.3025 169.1918,621.9312 170.1809,621.2912 171.3344,616.3189"/>
    <polyline points="175.9287,619.2301 174.8204,616.1824 178.1453,612.5805 179.8077,612.8575 180.0847,608.9786 183.1325,609.2556 183.1325,605.3767 179.8077,603.4372 179.8077,599.8353 176.7599,597.6188 177.037,595.1252 176.4828,593.1857 174.8204,591.8004 174.8204,588.1985 174.087,587.3079 170.8892,586.9336 168.3584,585.4103 159.5817,588.4755 159.8587,612.8575 163.4606,615.6283 166.5084,609.2556 168.7249,608.1474 171.4957,611.1951 171.7727,613.9658 170.1103,620.8925 167.8938,622.2778 163.4606,621.7237 162.9065,617.5677 151.5467,612.8575 153.4862,590.692 151.2697,589.8609 144.0659,592.9087 141.5723,591.5233 141.5723,589.3068 152.3779,573.7909 155.9798,570.189 161.5212,569.6349 167.6167,567.4183 170.9415,567.4183 173.9893,568.5266 174.8204,569.3578 175.3746,574.0679 174.0929,576.1061 178.2181,577.4995 178.2253,578.8166 178.2181,577.4995 176.3679,576.8744 178.2181,577.4995 178.2253,578.8166 178.2181,577.4995 174.0929,576.1061 174.135,577.4283 178.2253,578.8166 178.2181,577.4995 176.3679,576.8744 178.2181,577.4995 178.2253,578.8166 178.2181,577.4995 176.3679,576.8744 178.2181,577.4995 197.708,571.072 186.6175,567.5034 186.6128,560.6833 182.8555,562.7081 178.1453,563.2623 178.1453,573.2368 183.6866,572.9597 186.4574,571.0202 186.6175,567.5034 186.62,571.072 187.0182,570.5515 185.9032,571.2973 185.9032,567.6954 186.6175,567.5034 197.708,571.072 186.6175,567.5034 197.708,571.072 186.6175,567.5034 197.708,571.072 186.6175,567.5034 197.708,571.072 178.2181,577.4995 178.7324,577.3299 178.2253,578.8166 183.3999,578.8992 205.0273,571.6835 202.3571,576.4259 183.4096,582.8403 179.6104,583.0974 174.3403,581.4111"/>
    <line x1="168.3584" x2="164.6662" y1="585.4103" y2="586.8979"/>
    <polyline points="167.0625,589.0296 167.0625,591.8004 163.4606,601.2207 161.2441,603.4372 160.967,604.8226 158.7505,604.2685 155.4257,606.762 155.4257,607.5932 156.811,607.5932 159.0276,605.6537 159.7562,606.5088 160.1087,628.5593 178.534,636.1429 178.4129,613.6688 178.1453,635.3 176.4828,635.3 172.6039,633.3606 172.0498,633.9147 173.9893,637.7937 173.4352,645.2745 174.2663,647.214 172.6039,652.7554 159.3046,654.9719 154.8716,654.1407 152.3779,655.5261 150.9926,658.0196 142.4035,655.5261 131.5978,658.5738 121.6234,664.6693 120.7922,668.5483 122.1775,670.7648 121.6234,671.3189 117.4674,672.4272 108.8782,672.7043 107.2158,678.5227 115.8049,683.2329 123.5628,684.8953 133.2602,684.6182 140.464,682.4016 170.6644,700.1341 187.2885,708.169 201.1419,713.4333 216.9348,718.1434 234.1131,721.7453 252.9537,723.6848 254.8932,721.7453 255.1702,717.5893 247.9665,707.0608 240.2085,699.3028 229.68,691.5449 219.1514,685.4494 185.3491,670.4877 186.1803,658.5738 189.5051,656.9114 189.7821,654.6949 188.9509,653.3095 184.7949,651.37 183.4096,647.214 183.9637,639.7332 183.4096,637.7937 185.9032,633.0835 197.263,628.0963 197.8172,622.832 205.8521,619.5072 206.1292,615.074 201.6961,580.4406 198.0942,577.6698 183.6866,582.9341 178.2464,582.7563 180.1951,583.4276 178.8036,582.9483 180.6389,586.8131 181.7472,593.1857 173.9893,586.536 174.2663,585.7049 175.6517,585.9819 179.5306,589.3068 180.0847,589.0296 177.5912,582.9341 174.2663,580.9947 174.2663,576.5616 177.3141,577.1157 178.6994,578.5011 196.7088,572.6827 197.5401,571.2973 186.7344,567.4183 185.9032,565.7559 186.1803,560.2146 183.9637,558.5521 181.193,557.998 175.3746,557.998 171.2186,559.1063 170.1103,560.2146 170.3874,566.8642 168.6477,567.7364 171.7239,567.8267"/>
    <polyline points="170.6841,574.9546 167.3307,576.4236 167.9434,575.9013 167.7561,573.6106 162.9833,569.879 171.1382,569.3069 172.7183,570.9462 172.3011,572.0515 169.3376,574.0162 172.3005,572.052 172.7178,570.9468 171.1374,569.3074 167.3252,569.1575 164.1029,570.2735 169.2791,568.8037 171.4957,569.9119 171.7727,571.5744 170.6644,572.9597 166.2314,572.1285 163.7377,569.9119 162.2601,569.6653 155.8519,570.6116 141.6507,589.7692 141.692,591.356 143.1159,592.7831 145.5775,592.8031 151.8002,589.6733 152.6228,590.3122 150.8441,590.1543 152.5179,588.9981 153.3169,590.374 153.2964,589.3161 165.8176,581.5139 167.303,578.3878 166.2568,575.8171 164.5061,574.6269 162.1288,575.5276 157.9539,579.401 155.8169,582.2232 155.8455,583.8147"/>
    <polyline points="158.1964,588.7526 153.9037,590.1942 151.8454,613.1828 159.9139,616.3777 151.8454,613.1828"/>
    <line x1="160.69" x2="162.3524" y1="607.8703" y2="610.3639"/>
    <polyline points="164.0148,604.5455 164.2919,607.5932 163.1836,607.5932 162.0754,606.762 162.0754,603.7143"/>
    <line x1="145.5775" x2="145.5396" y1="592.8031" y2="591.2094"/>
    <polyline points="141.6507,589.7692 145.5396,591.2094 157.1344,578.5443 163.2348,573.1118 166.7309,572.8769 168.5136,574.7116 170.3874,573.5138 167.8938,574.0679 162.1592,569.6734 170.2444,567.5954 170.1765,560.6833 170.8684,559.7034 175.3676,558.3308 181.2559,558.3095 184.2319,558.8788 186.6128,560.6833 184.1793,562.5142 178.2969,563.2806 172.4717,562.5146 170.1765,560.6833 172.4723,562.5142 178.2969,563.2806"/>
    <polyline points="166.642,578.7598 165.123,575.4533 162.0754,576.2846"/>
    <polygon points="187.109,627.1459 178.467,623.7239"/>
    <polyline points="181.0539,635.1294 180.5347,641.4127 179.3882,635.7993 177.2781,635.6259 178.6496,641.5859 176.1648,635.1676"/>
    <polyline points="173.572,639.9756 175.0471,641.507 178.7507,642.1456 182.4892,641.507 184.048,639.9756 182.0242,638.9019 181.7472,640.2873 180.3618,640.8414 181.3288,641.1949 176.0147,641.1132 172.2027,633.5371 175.1571,640.5577 174.8204,641.3955 178.4223,642.2268 182.3013,641.3955 183.4744,634.156 182.6216,640.2959 185.8605,633.1965 183.0618,639.1394 184.048,639.9756 183.6534,646.763 178.7822,648.1253 173.984,646.763 174.005,639.1527 175.0976,639.179 175.3746,640.2873 177.037,641.1185 180.3618,640.8414 179.2536,636.4084 178.534,636.1429 197.3918,628.5593 197.4221,623.07"/>
    <polyline points="189.658,653.8057 185.471,655.6053 185.6261,657.4655 184.8564,651.7516 189.658,653.8057 189.7392,657.0832 185.9678,658.7198"/>
    <polyline points="186.0112,662.0859 184.5309,649.7096 183.2858,646.9924 182.5041,647.4786 184.058,651.6277 186.058,662.3361 184.6821,675.2666"/>
    <polyline points="180.8387,675.9382 180.5679,672.3884 178.7057,672.6619 177.2162,647.994 176.7851,673.5147 178.0422,680.1514 182.2608,682.1229 185.2787,682.4019 188.3004,682.1229 192.5462,680.1514 193.1236,678.7699 190.8128,676.2441 183.4104,675.3816 184.5179,674.3667 185.4139,670.9798 219.7185,685.8099 231.5907,692.702 241.3728,700.1617 248.4231,707.5107 255.1844,717.4295 255.0741,721.9443 253.3915,723.72 251.649,724.0918 234.9337,721.9282 219.6449,718.8578 202.7465,714.0243 187.5503,708.2297 173.2162,701.4518 140.2778,682.4792"/>
    <polyline points="138.1699,679.9261 125.5608,681.2702 116.7985,679.4348 108.1171,675.0464 116.082,679.0769 124.6711,681.0164 136.8621,680.1851 149.0531,674.6437 147.9448,670.2107 154.8716,669.3794 156.811,667.4399 157.3652,662.7298 157.9193,663.2839 157.3652,667.4399 157.7262,667.033 157.6469,662.5602 155.669,660.2506 147.655,659.5488 143.4211,661.3065 142.6938,662.5602 143.1033,663.8228 146.9573,665.6241 155.2423,664.9004 156.9679,663.8228 157.3652,661.3445 154.3174,659.405 151.0652,658.9357 152.9575,655.3543 155.9236,654.1297 168.8757,659.9193 170.9858,665.6686 167.7053,667.0939 171.8517,664.8262 171.7727,665.5005 167.0625,666.6088 157.5655,662.3383 167.8455,667.033 165.9064,661.1852"/>
    <polyline points="168.8757,659.9193 165.9064,661.1852 152.9575,655.3543 165.123,660.7904 168.4479,659.9591 169.5562,661.6215 170.9415,661.6215 169.8333,662.1757 170.6644,664.9464 171.9678,665.8731 172.1894,667.8697 167.536,667.0787 162.1105,668.0692 159.6984,670.483 159.9106,675.4146"/>
    <polyline points="157.7007,665.5977 160.8149,667.033 149.769,671.7914 147.9681,670.9382 147.2516,669.1387 144.1238,670.4722 146.1201,676.4722 138.6686,672.8796 137.5902,673.3394"/>
    <polyline points="136.6061,666.8978 116.519,676.4771 118.5224,677.4821 130.7275,676.266"/>
    <polyline points="131.4055,669.3781 129.3935,668.4078 131.4055,669.3781 129.3935,668.4078 121.4657,671.711 129.3935,668.4078 131.2094,664.3318 134.3314,663.0429 147.2516,669.1387 149.428,675.0347 154.9015,672.6566 149.428,675.0347"/>
    <polyline points="143.1432,677.7655 138.1699,679.9261 146.1201,676.4722 138.6686,672.8796 138.6187,667.8548 144.1238,670.4722 145.7283,675.7521 137.6934,672.9813 126.6106,677.1374 118.2985,677.4145 116.9132,676.5832 117.1903,675.7521 123.0087,673.2584"/>
    <polyline points="131.2094,664.3318 138.6187,667.8548 118.5224,677.4821 119.6839,676.3062 137.6934,667.9942 143.7888,670.2107 146.5595,669.1024 143.5118,666.6088 142.9576,667.1629 142.4035,666.6088 142.0801,663.1219 142.9576,662.7298 143.5118,666.6088 142.8125,667.033 142.6938,662.5602 145.186,662.5602 146.826,661.0173 152.2818,660.5468 155.1547,662.5602 153.5441,664.1169 149.935,664.7657 146.4642,664.1169 145.186,662.5602 144.62,664.9464 150.4384,665.7775 155.7027,664.3923 152.655,660.5133 146.8365,660.7904 145.7283,662.1757 146.8365,664.1152 151.8238,664.3923 154.3174,662.7298"/>
    <polyline points="151.3353,658.4242 143.1339,655.6471 130.8639,659.2272 124.9792,662.348 121.1864,665.8382 120.8977,668.1147 122.6322,671.225 117.8564,672.5248 108.8621,672.8877 107.3698,678.7727 116.0338,683.2016 124.7883,685.0319 133.7842,684.5127 144.9068,680.4492"/>
    <polyline points="161.2441,656.6344 164.846,657.7426 168.1708,657.1885 171.7727,655.8031 172.8161,653.4926 158.2468,655.1681 160.2489,656.063 172.6579,654.6527 171.7727,658.0196 165.123,658.2967 166.4885,658.852 164.454,657.9426 172.2587,656.9845 172.0351,658.1787 166.4885,658.852 166.791,657.6556 172.5582,655.3836 171.7727,665.5005 174.2663,678.5227 175.3746,679.631 178.1453,679.9081 178.1453,683.5099 179.2405,685.6323 185.2859,687.0703 190.8455,685.9889 193.1089,683.403 193.1236,678.7699 192.8299,684.0641"/>
    <polyline points="180.0847,685.7265 183.1325,686.8348 187.2885,686.8348 190.6134,685.7265 192.2758,683.5099 192.5528,679.3539 190.8904,681.2934 187.5656,682.1246 182.5784,682.1246 179.2536,681.0164"/>
    <polyline points="172.8668,672.7841 170.112,673.6868 164.2093,673.6868 161.7148,672.8966 159.6984,670.483 158.7167,670.9992 159.6997,670.5719 161.5212,672.7043 165.9543,673.8126 172.0498,672.9813 172.6039,673.8126 172.8809,676.8603 171.7727,677.6915 164.2919,678.2456 160.967,676.3062 159.5817,670.7648 159.3046,674.6437 161.8321,677.5056 167.2017,678.5387 173.7548,676.793 174.2367,678.9677 171.5912,662.478 173.178,650.8369 174.6041,647.1633 173.6017,649.8085"/>
    <polyline points="179.8252,651.9458 180.1748,648.0089 182.9347,663.8758 182.7723,672.9235 182.475,675.4664 179.8293,676.2441 177.4836,678.7699 178.1453,684.6182 177.3141,683.787 177.037,680.1851 178.1453,676.8603 182.5784,674.9208 182.5784,667.1629"/>
    <polyline points="178.4223,667.9942 177.3141,649.1535 176.7599,665.2234"/>
  </g>
  <g fill="none" id="layer4" inkscape:groupmode="layer" inkscape:label="4" stroke="#000000" stroke-width="1.0" style="display:inline">
    <polyline points="411.6111,597.8191 421.5421,599.9469 417.7057,610.8165 411.6316,611.7755 412.1301,610.8225 410.7339,612.3965 409.202,610.8126 401.9276,609.0889 395.1307,602.4041 401.4014,600.5864 404.5984,597.0697 405.5574,597.0697 404.9181,598.9879 402.9999,600.5864 403.39,601.1599 405.6662,597.1084 402.7717,601.392 412.271,598.0288 420.5829,600.2667 418.3452,604.7423 417.9238,610.9712 410.7339,612.3965 411.5715,614.8053 409.3394,615.7756 402.3842,612.9162 401.2704,610.467 398.5242,609.5377 401.4014,610.8165 401.7212,614.6528 403.6623,615.9412 401.4014,615.9316 400.7621,612.0953 401.7058,611.4245 400.2442,611.7098 398.576,610.6614 395.053,606.7957 394.2666,604.6129 393.0796,604.2494 394.328,604.2072 394.8612,605.5301 393.0796,604.2494 391.9843,601.0598 393.4091,598.9879 395.9667,599.3076 398.2045,596.1107 393.4091,598.6682 395.5214,599.5515 393.8439,599.3635 390.7493,596.5128 389.4529,591.9412 390.7074,588.2939 392.1221,587.5432 395.4919,588.7658 396.9302,590.5596 398.2356,595.1787 397.9018,597.2907 395.5214,599.5515 396.3695,602.5473 403.4337,599.6299 404.8794,597.3389 405.6789,591.4479 403.4178,583.7648 401.1492,580.4649 398.9353,579.0381 396.7324,579.0151 394.3683,583.3229 397.8848,582.6836 400.1227,583.9624 399.4833,584.6017 397.2455,583.6427 394.0485,584.6017 392.8158,583.9908 395.0674,581.7808 397.5176,580.9215 400.3705,581.2354 403.4088,584.7731 405.6789,591.4479 402.7854,584.9956 398.8417,581.7738 395.0674,581.7808 398.8439,581.7245 401.4014,583.3229 399.4833,580.7654 396.2864,580.7654 396.7324,579.0151 418.5082,576.8687 420.1853,577.1667 419.5398,578.924 421.4136,580.837 420.481,582.6862 421.4129,580.8377 420.8605,579.6935 415.7039,578.6193 419.4622,578.8789 410.9922,577.5685 406.1189,578.3061 406.1412,569.2073 417.3861,572.7731 417.7057,575.97 413.6895,577.4272 413.7243,571.7674"/>
    <polyline points="418.1434,573.259 418.1195,576.1712 418.6649,573.4125 426.3375,575.97 427.936,575.3307 428.2556,534.4101 426.3375,533.7707 423.4602,538.5661 417.3861,538.8858 411.312,535.3691 408.115,528.9753 405.8771,527.6965"/>
    <polyline points="410.4986,534.8097 406.1658,524.6895 405.0425,514.7455 405.7892,512.6662 411.6162,509.8318 421.6677,508.2235 433.3512,508.2235 443.7383,509.8318 450.1564,512.6662 450.7949,516.0185 449.6907,524.9923 445.5781,534.8097"/>
    <polyline points="441.363,536.0085 444.2402,533.7707 447.7568,526.7375 450.2625,527.4487 448.4221,528.021"/>
    <polyline points="450.2569,520.3918 453.4538,518.4865 453.5666,513.9418 452.3335,511.7528 441.0915,509.422 446.1584,513.3104 446.1584,515.5482"/>
    <polyline points="453.5666,513.9418 445.2709,518.9929 434.9458,520.7413 413.4852,522.1809 408.2186,521.5968 405.3925,519.8759 408.115,521.6224 416.1073,521.9421 434.9691,520.6633 444.2402,519.0649 447.7568,517.4664 446.1584,515.8679 442.3221,518.1057 433.3707,519.7042 411.6316,520.0239"/>
    <polyline points="408.8081,515.9721 409.2451,512.9235 414.1482,510.5211 422.6543,509.1537 432.559,509.1537 441.3502,510.5211 446.7542,512.9235 447.2555,515.755 442.5689,518.2573 433.8675,519.7244 412.6706,520.6882 409.6255,519.8251 408.7544,514.2695 408.7544,517.7861 410.0331,519.7042 409.7135,513.63 410.3528,512.0316 413.23,510.7528"/>
    <polyline points="427.1881,533.7435 428.6418,534.1693 428.0827,576.6142 405.6032,569.0257 405.6946,527.4487 407.5843,528.0021 407.1617,527.0149 405.6946,527.4487 406.8362,526.0981 404.9181,518.7451 405.2378,512.9907 411.6316,509.4741 421.2224,507.8756 433.051,507.8756 447.4372,509.7938 451.9129,511.3922 453.5113,513.9497 453.1916,518.1057 449.9947,520.6633 448.8294,527.0481 450.2625,527.4487 449.2882,569.0257 432.4321,575.0577 439.0385,576.3911 444.9695,574.2437 440.7236,572.1338 435.9282,573.7322"/>
    <polyline points="427.2965,577.2488 428.2556,582.6836 433.6904,590.0365 431.7479,588.7133 432.2795,589.0991"/>
    <polyline points="428.3202,582.719 428.0827,576.6142 432.4321,575.0577 431.1328,575.97 435.6085,577.5685 439.1251,577.5685 448.6801,574.2437 449.0868,573.2795"/>
    <polyline points="455.5062,587.1212 455.5784,584.4594 451.3706,583.0452 449.0736,583.9058 451.37,583.0455 449.3182,583.8141 448.9886,581.816 449.0001,591.2772 451.4013,588.6865 449.1031,586.908 455.5784,584.4594 449.3553,586.5199 449.0401,589.5864 451.4013,588.6865"/>
    <polyline points="449.1795,598.0103 450.5538,610.5998 440.1434,614.8242 439.0909,605.4936 440.1434,614.8242 450.5538,610.5998 449.1795,598.0103 447.2731,598.4041 449.7501,603.2372 448.808,609.0563 445.3793,612.6995 443.3198,612.9466 440.0273,610.0754 439.3572,605.3884 440.846,604.8005 436.9093,606.3548 437.0654,597.5649 458.079,589.4745 436.8873,597.3894 432.4346,595.9153 437.0654,597.5649 432.4346,595.9153 430.276,596.7382 430.3164,594.0122 427.8646,593.1417 429.7457,589.503 427.927,588.4268 432.0785,586.8869 429.9512,587.6759 432.0785,586.8869 423.0219,605.0899"/>
    <polyline points="427.2965,610.1771 431.1328,604.1029 432.4116,597.7091 431.0216,600.5164 432.8183,597.2843 432.4116,604.4226 427.2965,611.4559 427.536,618.0895 427.6258,611.2686 425.0586,613.374 425.0586,617.2104 426.9768,618.1694 425.3783,619.1285 418.6649,618.8088 409.0741,615.9316 411.4922,614.8395 413.1853,615.8078"/>
    <line x1="408.5645" x2="420.6657" y1="615.4859" y2="614.1074"/>
    <polyline points="417.9238,610.9712 420.6677,600.8565 424.1396,593.7552 424.4193,590.3562 421.5421,599.6272 424.4193,594.5122 425.3783,590.6759 427.4746,593.0036 430.3164,594.0122 430.2754,596.7385 430.3164,594.0122 437.8345,591.1691 436.1421,591.5777 436.3595,578.9701 439.1923,577.6932 436.378,577.8879 436.3595,578.9701 436.378,577.8879 430.2639,575.8336 433.051,574.6913 438.8054,576.2898 442.9615,574.6913 443.9205,573.7322 440.7236,572.1338 449.3553,568.2974 450.3144,528.0162 449.3553,527.0571 448.0765,528.0162 444.8796,535.0494 438.8054,538.8858 435.6085,538.8858"/>
    <polyline points="406.1968,569.2565 405.8771,577.8882 396.606,578.8473 392.7698,583.6427 389.5728,584.9214 387.335,588.1183 387.0153,591.9546 388.6138,597.3894 397.5652,610.1771 395.647,624.2436 388.9334,628.7192 387.6547,635.4328 387.6547,637.3509 390.5319,638.6298 389.5728,656.2128 390.5319,658.4506 396.606,660.3688 412.5907,653.3356 418.9845,655.2538 422.5011,651.7371 424.739,646.9417 425.0586,641.507 418.3452,636.0722 418.3452,632.5556 414.1892,630.6374 413.5268,631.9708 412.4491,631.538 412.465,628.7729 414.5165,629.5914 412.465,628.7729 412.4491,631.538 413.5268,631.9708 412.6176,634.0245 405.4651,631.1323 412.6176,634.0245 413.8695,630.6374 412.1764,635.0217 416.5331,636.7889 418.2678,632.8672 416.5331,636.7889 417.3861,636.3919 412.271,634.7934 411.6316,635.7525 415.4679,637.6706 418.8173,636.5316 437.386,644.0405 418.8173,636.5316 418.6354,637.8465 427.2297,641.3346 427.396,628.7196"/>
    <polyline points="426.0178,634.7934 423.4602,637.3509 421.8618,636.7116 422.8208,634.7934 424.4193,634.7934"/>
    <line x1="427.2297" x2="428.9103" y1="641.3346" y2="640.6131"/>
    <polyline points="421.8618,642.7857 420.5829,640.8676 417.3861,641.507"/>
    <polygon points="414.6361,629.639 414.6275,630.9024"/>
    <polyline points="403.473,632.2602 410.5328,628.2608 401.3653,633.1214"/>
    <polyline points="394.9539,635.0811 394.9686,639.8765 396.0175,639.4434 393.3136,639.1837 393.2963,634.7691 393.8446,635.028 391.9047,633.233 391.3117,630.7512 392.1058,628.9523 394.4897,628.0412 392.3785,628.8855 393.9319,635.3928 401.3618,633.1227 405.4673,630.7947 405.4635,632.5009 409.7566,634.2432 405.2378,637.3509 402.3605,644.3842 402.3605,646.9417 405.5574,649.8189 418.5539,655.2419 409.8692,651.2298 410.443,651.8174 398.1361,657.1463 398.1016,634.1195 396.0057,634.7598 396.0715,660.6718 396.0581,655.357 398.1294,652.7383 405.74,649.4791"/>
    <polyline points="413.4551,653.0955 396.0715,660.6718 389.961,657.9794 390.865,637.2918 390.8251,638.2051 387.7759,637.5312 389.2698,629.039 387.7759,637.5312 390.865,637.2918 393.3103,638.3129"/>
    <polyline points="392.9175,628.7157 392.8695,626.0389 395.9801,624.803 395.9471,627.7599"/>
    <polyline points="389.2698,629.039 392.8695,626.0389 395.9865,627.2995 397.8094,609.82"/>
    <polyline points="399.1637,606.0211 395.9667,602.8242 399.4833,599.6272 402.9999,598.3485"/>
    <polyline points="403.3966,602.1598 405.6662,597.1084 405.6789,591.4479"/>
    <polyline points="395.006,590.5672 396.3845,589.8789 395.3273,589.7168 396.9258,590.6759 397.5652,593.5531 395.0076,592.2743 395.3273,588.4381 391.1713,587.4789 390.2123,588.7578 393.4091,588.4381"/>
    <polyline points="391.2704,584.5352 393.7918,584.7725 396.3321,586.3562 399.9475,592.4406 399.9513,599.1689 398.5124,601.4668 396.3695,602.5473 393.8542,602.257 391.3478,600.6522 387.7992,594.6458 387.2832,591.1417 389.1531,585.6699 396.2263,582.7894 398.7493,583.0203"/>
    <polyline points="406.1261,575.3246 406.1968,579.167 417.0664,579.4867 418.3452,576.6095 422.5011,577.8882 423.7799,579.167 423.7799,583.3229 422.8535,583.3629 424.4906,580.3371 423.6517,578.6238 422.8698,578.172 424.7272,581.574 419.0843,585.7325 422.8535,583.3629 421.4129,580.8377"/>
    <line x1="419.0843" x2="418.2275" y1="585.7325" y2="585.9624"/>
    <polyline points="416.427,596.75 414.5088,586.8396 420.9027,581.7245 421.2224,580.4457 418.9845,579.4867 413.8695,585.5608 413.23,587.7986 418.2275,585.9624 417.8033,584.4272 420.481,582.6862 414.764,587.0093 416.3896,597.0534 423.4602,586.8396 425.0586,589.3971 427.6162,589.3971 426.9768,588.1183 423.4602,586.8396 427.927,588.4268 427.9109,589.6356 427.927,588.4268 426.512,587.9316 427.927,588.4268 427.901,590.3802 428.6827,589.5131 423.0686,600.5246 421.5267,604.7373 421.2166,609.0808 421.9375,608.991 423.8138,601.0672 428.0002,593.8028 429.854,596.4304 430.8132,596.4304 436.8873,593.8728 442.6418,593.5531 447.7568,591.635 450.3144,588.7578 454.1507,587.7986 454.9518,588.4103 455.5062,587.1212 453.4583,587.9019 458.079,589.4745 457.8377,598.0921 454.0509,599.5873 450.5167,597.8552 447.5894,598.1947 444.0445,600.5384 440.846,604.8005 444.0449,600.5384 447.5894,598.1947 451.0618,597.7919 454.0509,599.5873 450.9537,597.3894 450.3144,598.0288 453.5113,599.6272 454.6852,599.3366 457.9505,635.046 437.386,644.0405 433.488,605.1046 436.9093,606.3548 433.488,605.1046 432.8445,603.5384 427.472,611.4552 424.4461,613.4144 420.6657,614.1074 421.74,613.7979 422.388,611.2791 424.0996,612.415 422.1814,612.7347 419.7314,617.4984 422.1633,613.837 419.7314,617.4984 425.012,617.9114 419.6239,617.5301 418.9845,616.2512 417.0664,615.9316 417.0664,614.9725 414.5088,615.9316 413.23,614.6528 407.7953,614.9725 404.2787,613.374 404.9181,618.1694 406.5166,621.6861 405.4843,623.1201 395.9629,627.5757 399.3023,626.7001 399.983,626.3056 392.1058,628.9523 399.3007,626.7004 405.5069,623.1071 399.3005,626.7011 392.3778,628.8864 393.9319,635.3934 401.3615,633.1236 411.1064,626.7857 405.2378,622.6451 403.6393,618.4891 403.6652,613.5815 403.6598,617.9348 405.4602,623.0744 410.6006,626.6889 418.3407,628.1717 427.4155,627.2535 427.396,628.7196 424.4298,627.5552 427.396,628.7196 427.4155,627.2535 427.396,628.7196 424.4298,627.5552 428.6511,626.9549 427.936,626.8011 428.895,626.1617 428.895,621.3663 431.7722,620.7269 427.936,618.8088 427.5807,619.5393 418.4212,618.8264 410.6476,616.8101 402.3842,612.9162 401.2704,610.467 401.9276,609.0889 409.0249,605.1656"/>
    <polyline points="406.5166,609.8575 402.3605,608.5786 413.5498,602.1848"/>
    <polyline points="428.5753,615.9316 431.1328,616.8907 431.7722,618.1694 428.2556,617.5301"/>
    <polyline points="446.7977,611.4559 444.56,612.7347 441.6826,612.0953 439.1251,607.2999 439.4448,605.3818 443.6008,600.5864 445.8387,598.9879 446.7977,599.6272 447.1175,606.3408 443.2044,612.2916 446.5452,608.7203 447.4851,602.9159"/>
    <polyline points="441.7287,594.063 441.8457,588.2107 439.1923,577.6932 448.6801,574.2437 448.9886,581.816 449.0868,573.2795 442.98,571.2831 449.0356,573.7322 449.0356,583.0032 454.7901,583.9624 455.1098,587.7986 457.987,589.7168 457.6673,597.7091 454.7901,599.3076 457.987,634.4737 437.8464,643.7448 429.5344,640.8676 427.6162,641.1873 426.3375,639.5888 420.7745,637.3231 417.2358,638.265 412.6677,643.9654 411.4599,651.3119 419.496,655.1316 409.9178,651.5776 418.895,655.404 422.0148,652.756 425.0916,645.7943 424.5459,640.2454 426.9768,638.9494 426.6571,627.4405 417.3861,628.0799 411.312,627.1208 405.5574,630.9571 406.5166,632.8752 412.0635,633.8004 408.5213,634.7189 405.9619,637.0671 403.9689,640.3558 402.7912,647.6422 412.0086,652.1367 411.4599,651.3119 412.4551,651.8413 416.1364,643.059 417.6853,641.6182 420.8298,641.1927 421.9462,642.264 422.458,646.1677 418.482,654.7055"/>
    <polyline points="420.2633,687.2229 419.3042,688.5017 414.1892,687.2229 409.0741,687.2229 406.1968,688.182 403.959,690.1002 403.3196,692.0183 403.959,697.4531 401.2237,695.9668 402.3605,694.2562 397.2455,699.3712 392.1304,700.3303 366.7075,685.7923"/>
    <polygon points="372.6291,684.9851 375.1867,682.4276 378.7033,682.7472 380.6215,684.6654 380.6215,686.5836 376.4655,687.8623 371.9898,687.8623 369.4322,686.2639"/>
    <polyline points="387.6547,681.1487 384.1381,682.4276 387.9744,683.3866 389.8926,682.1079 387.335,680.1897 382.8593,681.7882 382.5397,682.7472 385.0972,684.026 389.5728,684.026 390.8516,681.1487 389.8926,680.1897 387.335,680.1897"/>
    <polyline points="392.5181,700.6017 397.647,699.299 403.7799,693.3895 410.0331,695.2152 418.3452,694.2562"/>
    <polyline points="420.5829,697.4531 421.05,691.362 418.6373,694.2587 412.5233,695.4697 406.3461,694.2587 404.452,692.925 403.7828,691.362 404.4279,689.8102 406.2774,688.5033 412.3119,687.3303 418.4072,688.5033 420.3246,689.8102 421.05,691.362 420.4113,698.0269 415.8084,700.2763"/>
    <polyline points="409.1607,700.2763 404.443,698.0269 403.7828,691.362 404.5984,696.8137 406.5166,699.3712 414.5088,700.3303 418.3452,699.0516 419.9436,696.8137 420.5829,690.7395 419.0779,688.9605 420.6377,688.1414 420.5987,686.8998 390.7749,675.2172 376.0211,671.3474 351.8443,667.6328 353.9886,672.5577 359.0023,679.1098 371.3504,688.8214 381.2608,687.8623 382.2199,686.9033 381.9002,683.7063 378.3836,680.8291 374.2276,680.8291 371.3504,684.026 365.9157,684.9851 358.243,677.9519 351.8492,668.3611 358.9956,678.8023 367.1199,685.8361 392.5181,700.6017 398.8554,698.8098"/>
    <polyline points="424.6508,701.1689 424.5875,706.3447 426.9768,703.8469 430.8132,705.1257 436.5676,705.1257 439.4448,704.1666"/>
    <polyline points="442.3057,701.1689 439.9825,704.1977 433.7901,705.4642 427.4135,704.1977 425.411,702.8031 424.6508,701.1689 425.2341,699.5467 429.8467,697.2728 436.5443,697.2728 441.4867,699.5467 442.3057,701.1689 441.6727,707.9931 442.0023,701.6091 440.7236,707.6833 437.8464,709.921 433.051,710.5605 427.6162,709.2817 425.3783,706.7242 425.3783,702.8879 424.4193,701.6091 424.0996,705.7651 425.0586,707.6833 424.5875,706.3447 427.3422,709.3999 430.2787,710.3453"/>
    <polyline points="431.1328,716.6346 417.0664,723.9875 387.9744,710.8802 373.5883,703.2076 361.44,694.8955 352.8082,686.5836 348.0128,679.87 344.816,671.8778 345.4553,667.7217 347.0538,666.4429 377.4245,670.5989 392.4501,674.4353 409.7135,680.5094 442.3221,695.8547 473.3322,712.7983 489.9562,722.3891 492.194,725.2663 492.5138,727.8239 489.9562,731.9799 485.1609,736.4556 474.611,741.8903 466.9384,743.8085 451.2734,737.7343 440.7236,746.366 436.8873,747.3251 429.5344,745.4069 418.6649,744.1282 409.0741,734.8571 409.3938,728.4632 417.0664,724.3072"/>
    <polyline points="411.6747,731.4473 434.4538,719.9559 434.7246,718.0147 433.622,716.8315 409.2742,729.2139 409.1306,734.9156 414.2543,738.9143 418.2978,743.789 439.6258,747.3008 457.0595,733.0223"/>
    <polyline points="457.1781,729.0131 456.7581,726.484 465.1279,729.6992 468.3252,729.14 476.0214,726.0869 481.2788,721.9866 482.0713,720.3664"/>
    <polyline points="474.3395,727.1752 478.8325,724.4971 482.0713,720.3664 463.4707,709.7002 464.3044,712.7699 460.1874,715.4099 454.7079,715.7893 450.0695,714.862 446.5522,711.8146 446.7635,710.0918 450.9093,707.5122 457.698,707.221 463.2379,709.3811 464.4489,711.0397 464.0612,716.9543 468.2171,715.3559 465.6596,714.7164 464.7005,713.7574 465.3399,712.7983 468.8565,714.0771 469.4959,713.4377 464.7005,711.1999 463.102,717.5937 464.0612,717.9134 462.7823,718.5528 462.7823,719.8316 467.8974,718.8724 468.8565,721.1103 470.7746,721.7497 474.611,721.1103 475.57,720.1513 474.611,717.274 477.4882,717.5937 481.0048,719.5118 481.6442,720.7906 475.8898,725.9057 465.9792,729.742 457.3476,727.1845 455.4294,725.586 454.1507,725.9057 442.6418,735.1768"/>
    <polyline points="443.5388,725.3696 442.862,723.5214 441.1082,722.9988 418.3308,737.9888 418.107,739.3267 420.2633,737.7343 421.5421,740.2918 436.5676,742.5297 439.1251,739.0131 455.3981,725.9617 434.7313,718.0477 433.3707,720.1513 411.312,731.3404 409.5658,731.2196 418.107,739.3267 418.3452,741.5706 418.3452,738.6934 420.5829,736.1358 441.363,723.3482 443.1622,726.0793 420.2754,740.2644 437.5049,743.1898 436.6057,742.1134 437.4013,740.1697 454.4013,726.359 455.9691,725.9197 457.3476,728.7829 455.4294,731.3404 454.4704,734.8571 451.2939,737.7944 467.8316,744.0044 482.4831,738.765 489.6643,732.748 491.945,730.1752 492.7845,727.4204 492.1138,724.618 490.3287,722.5755 473.4598,712.8968 439.5791,694.4362 409.5481,680.5193 393.3605,674.8093 378.0316,670.8189 348.1311,666.42 345.1702,668.6114 345.1078,672.9132 348.3457,680.3953 354.7289,688.7539 363.172,696.3422 374.6538,703.8741 389.0959,711.4585 417.3861,724.3072 432.0919,717.5937 430.3601,715.7948 431.8733,714.2583 443.1606,710.6184 449.8907,705.0132 454.7153,704.6612 460.3649,707.9128 451.9129,707.0438 446.7977,709.6014 446.478,717.274 449.675,719.5118"/>
    <polyline points="446.4292,717.0061 446.5522,711.8146 447.4372,713.118 447.4372,716.6346 449.0356,714.3967 453.1916,715.6756 461.5036,714.7164 459.5855,712.7983 457.987,714.0771 453.1916,714.0771 451.2734,713.118 450.3144,710.2408 452.2325,708.6423 456.7082,708.3226 461.4703,711.1688 459.0889,709.165 452.4336,708.8095 449.6788,710.5298 449.5395,711.6851 451.8914,713.711 458.6187,714.0745 460.3665,713.3424 461.4703,711.1688"/>
    <polyline points="458.3066,706.4045 453.5113,704.1666 450.3144,704.4863 443.2811,710.2408 430.4935,715.0362 431.1328,716.6346 433.6904,716.6346 435.2889,718.5528 453.5113,725.586"/>
    <line x1="465.1279" x2="465.1164" y1="729.6992" y2="730.0345"/>
    <polyline points="464.0612,717.9134 466.299,718.2331 468.8565,716.9543 470.1353,718.8724 471.4141,718.8724 472.6928,717.5937 471.0944,716.3149 471.4141,715.6756 476.2095,716.6346 470.1353,713.4377"/>
    <line x1="441.2722" x2="437.0765" y1="708.307" y2="710.3453"/>
    <line x1="413.8695" x2="417.7057" y1="734.5374" y2="738.6934"/>
  </g>
</svg>
